<svg width="30" height="30" viewBox="0 0 30 30" fill="none" xmlns="http://www.w3.org/2000/svg">
<g clip-path="url(#clip0_160_220)">
<path d="M4.16667 31C4.16667 31 2 31 2 28.75C2 26.5 4.16667 19.75 15 19.75C25.8333 19.75 28 26.5 28 28.75C28 31 25.8333 31 25.8333 31H4.16667ZM15 17.5C16.7239 17.5 18.3772 16.7888 19.5962 15.523C20.8152 14.2571 21.5 12.5402 21.5 10.75C21.5 8.95979 20.8152 7.2429 19.5962 5.97703C18.3772 4.71116 16.7239 4 15 4C13.2761 4 11.6228 4.71116 10.4038 5.97703C9.18482 7.2429 8.5 8.95979 8.5 10.75C8.5 12.5402 9.18482 14.2571 10.4038 15.523C11.6228 16.7888 13.2761 17.5 15 17.5Z" fill="white"/>
</g>
<defs>
<clipPath id="clip0_160_220">
<rect width="26" height="25" fill="white" transform="translate(2 4)"/>
</clipPath>
</defs>
</svg>
