<svg width="16" height="22" viewBox="0 0 16 22" fill="none" xmlns="http://www.w3.org/2000/svg">
<path d="M9.568 14.3213V14.6565H3.36V13.1634C3.36 11.1219 3.84 10.3601 6.144 9.14127L8.256 8.07479C9.184 7.61773 9.728 7.13019 9.728 6.30748C9.728 5.33241 9.056 4.81441 7.936 4.81441C6.752 4.81441 6.112 5.48476 6.112 6.61219V7.31302H0V6.15512C0 2.49862 2.848 0 7.936 0C13.184 0 16 2.28532 16 6.33795C16 9.41551 14.592 10.9391 11.52 12.4931L10.272 13.133C9.728 13.4072 9.568 13.7119 9.568 14.3213ZM2.912 22V16.1496H10.016V22H2.912Z" fill="white"/>
</svg>
