<svg width="333" height="486" viewBox="0 0 333 486" fill="none" xmlns="http://www.w3.org/2000/svg">
<path d="M120.707 1.20709L12.2814 1.20525C6.60318 1.20516 2 5.80825 2 11.4865V115.237M120.707 1.20709L143.624 109.945M120.707 1.20709H236.469M143.624 109.945L69.1304 115.237M143.624 109.945L199.28 125.381M2 115.237V203.229M2 115.237H69.1304M2 203.229L95.6741 263.451M2 203.229V347.568M95.6741 263.451L132.11 211.139M95.6741 263.451L101.668 347.568M69.1304 115.237L132.11 211.139M236.469 1.20709L261.787 103.942M236.469 1.20709H320.719C326.397 1.20709 331 5.81016 331 11.4883V84.5917M261.787 103.942L199.28 125.381M261.787 103.942L331 84.5917M199.28 125.381L229.249 259.163M229.249 259.163L132.11 211.139M229.249 259.163L331 171.855M229.249 259.163L218.974 367.217M2 347.568H101.668M2 347.568V474.143C2 479.821 6.60307 484.424 12.2813 484.424H132.11M101.668 347.568L132.11 484.424M101.668 347.568L218.974 367.217M331 84.5917V171.855M331 171.855V302.208M331 302.208L218.974 367.217M331 302.208V474.143C331 479.821 326.397 484.424 320.719 484.424H246.206M218.974 367.217L246.206 484.424M132.11 484.424H246.206" stroke="#D9D9D9" stroke-width="2.05625"/>
</svg>
